<?xml version="1.0" encoding="us-ascii" standalone="no"?><svg xmlns="http://www.w3.org/2000/svg" xmlns:xlink="http://www.w3.org/1999/xlink" contentStyleType="text/css" height="551px" preserveAspectRatio="none" style="width:555px;height:551px;background:#FFFFFF;" version="1.1" viewBox="0 0 555 551" width="555px" zoomAndPan="magnify"><defs/><g><text fill="#000000" font-family="sans-serif" font-size="14" font-weight="bold" lengthAdjust="spacing" textLength="57.75" x="248.0938" y="27.9951">&#32034;&#24341;&#19979;&#25512;</text><rect fill="none" height="323.3984" style="stroke:#000000;stroke-width:1.5;" width="487.9375" x="10" y="90.5938"/><line style="stroke:#181818;stroke-width:0.5;stroke-dasharray:5.0,5.0;" x1="74" x2="74" y1="73.5938" y2="516.2578"/><line style="stroke:#181818;stroke-width:0.5;stroke-dasharray:5.0,5.0;" x1="300" x2="300" y1="73.5938" y2="516.2578"/><line style="stroke:#181818;stroke-width:0.5;stroke-dasharray:5.0,5.0;" x1="461.9375" x2="461.9375" y1="73.5938" y2="516.2578"/><line style="stroke:#181818;stroke-width:0.5;stroke-dasharray:5.0,5.0;" x1="523.9375" x2="523.9375" y1="73.5938" y2="516.2578"/><rect fill="#E2E2F0" height="30.2969" rx="2.5" ry="2.5" style="stroke:#181818;stroke-width:0.5;" width="108" x="20" y="42.2969"/><text fill="#000000" font-family="sans-serif" font-size="14" lengthAdjust="spacing" textLength="94" x="27" y="62.292">MySQL Server</text><rect fill="#E2E2F0" height="30.2969" rx="2.5" ry="2.5" style="stroke:#181818;stroke-width:0.5;" width="108" x="20" y="515.2578"/><text fill="#000000" font-family="sans-serif" font-size="14" lengthAdjust="spacing" textLength="94" x="27" y="535.2529">MySQL Server</text><rect fill="#E2E2F0" height="30.2969" rx="2.5" ry="2.5" style="stroke:#181818;stroke-width:0.5;" width="120" x="240" y="42.2969"/><text fill="#000000" font-family="sans-serif" font-size="14" lengthAdjust="spacing" textLength="106" x="247" y="62.292">Storage Engine</text><rect fill="#E2E2F0" height="30.2969" rx="2.5" ry="2.5" style="stroke:#181818;stroke-width:0.5;" width="120" x="240" y="515.2578"/><text fill="#000000" font-family="sans-serif" font-size="14" lengthAdjust="spacing" textLength="106" x="247" y="535.2529">Storage Engine</text><rect fill="#E2E2F0" height="30.2969" rx="2.5" ry="2.5" style="stroke:#181818;stroke-width:0.5;" width="51" x="436.9375" y="42.2969"/><text fill="#000000" font-family="sans-serif" font-size="14" lengthAdjust="spacing" textLength="37" x="443.9375" y="62.292">Index</text><rect fill="#E2E2F0" height="30.2969" rx="2.5" ry="2.5" style="stroke:#181818;stroke-width:0.5;" width="51" x="436.9375" y="515.2578"/><text fill="#000000" font-family="sans-serif" font-size="14" lengthAdjust="spacing" textLength="37" x="443.9375" y="535.2529">Index</text><rect fill="#E2E2F0" height="30.2969" rx="2.5" ry="2.5" style="stroke:#181818;stroke-width:0.5;" width="52" x="497.9375" y="42.2969"/><text fill="#000000" font-family="sans-serif" font-size="14" lengthAdjust="spacing" textLength="38" x="504.9375" y="62.292">Table</text><rect fill="#E2E2F0" height="30.2969" rx="2.5" ry="2.5" style="stroke:#181818;stroke-width:0.5;" width="52" x="497.9375" y="515.2578"/><text fill="#000000" font-family="sans-serif" font-size="14" lengthAdjust="spacing" textLength="38" x="504.9375" y="535.2529">Table</text><path d="M10,90.5938 L74,90.5938 L74,97.7266 L64,107.7266 L10,107.7266 L10,90.5938 " fill="#EEEEEE" style="stroke:#000000;stroke-width:1.5;"/><rect fill="none" height="323.3984" style="stroke:#000000;stroke-width:1.5;" width="487.9375" x="10" y="90.5938"/><text fill="#000000" font-family="sans-serif" font-size="13" font-weight="bold" lengthAdjust="spacing" textLength="19" x="25" y="103.6606">alt</text><text fill="#000000" font-family="sans-serif" font-size="11" font-weight="bold" lengthAdjust="spacing" textLength="44.0313" x="89" y="102.8042">[&#26080;&#19979;&#25512;]</text><polygon fill="#181818" points="288,124.8594,298,128.8594,288,132.8594,292,128.8594" style="stroke:#181818;stroke-width:1.0;"/><line style="stroke:#181818;stroke-width:1.0;" x1="74" x2="294" y1="128.8594" y2="128.8594"/><text fill="#000000" font-family="sans-serif" font-size="13" lengthAdjust="spacing" textLength="106" x="81" y="123.7935">zipcode='95054'</text><polygon fill="#181818" points="450.4375,169.125,460.4375,173.125,450.4375,177.125,454.4375,173.125" style="stroke:#181818;stroke-width:1.0;"/><line style="stroke:#181818;stroke-width:1.0;" x1="300" x2="456.4375" y1="173.125" y2="173.125"/><text fill="#000000" font-family="sans-serif" font-size="13" lengthAdjust="spacing" textLength="78" x="307" y="152.9263">&#35835;&#21462;&#25152;&#26377;&#31526;&#21512;</text><text fill="#000000" font-family="sans-serif" font-size="13" lengthAdjust="spacing" textLength="132" x="307" y="168.0591">zipcode='95054'&#30340;&#34892;</text><polygon fill="#181818" points="311,183.125,301,187.125,311,191.125,307,187.125" style="stroke:#181818;stroke-width:1.0;"/><line style="stroke:#181818;stroke-width:1.0;" x1="305" x2="461.4375" y1="187.125" y2="187.125"/><polygon fill="#181818" points="85,212.2578,75,216.2578,85,220.2578,81,216.2578" style="stroke:#181818;stroke-width:1.0;"/><line style="stroke:#181818;stroke-width:1.0;" x1="79" x2="299" y1="216.2578" y2="216.2578"/><text fill="#000000" font-family="sans-serif" font-size="13" lengthAdjust="spacing" textLength="130" x="91" y="211.1919">&#36820;&#22238;&#25152;&#26377;&#31526;&#21512;&#26465;&#20214;&#30340;&#34892;</text><line style="stroke:#000000;stroke-width:1.0;stroke-dasharray:2.0,2.0;" x1="10" x2="497.9375" y1="225.2578" y2="225.2578"/><text fill="#000000" font-family="sans-serif" font-size="11" font-weight="bold" lengthAdjust="spacing" textLength="44.0313" x="15" y="235.4683">[&#26377;&#19979;&#25512;]</text><polygon fill="#181818" points="288,271.3281,298,275.3281,288,279.3281,292,275.3281" style="stroke:#181818;stroke-width:1.0;"/><line style="stroke:#181818;stroke-width:1.0;" x1="74" x2="294" y1="275.3281" y2="275.3281"/><text fill="#000000" font-family="sans-serif" font-size="13" lengthAdjust="spacing" textLength="106" x="81" y="255.1294">zipcode='95054'</text><text fill="#000000" font-family="sans-serif" font-size="13" lengthAdjust="spacing" textLength="202" x="81" y="270.2622">AND lastname LIKE '%etrunia%'</text><polygon fill="#181818" points="450.4375,315.5938,460.4375,319.5938,450.4375,323.5938,454.4375,319.5938" style="stroke:#181818;stroke-width:1.0;"/><line style="stroke:#181818;stroke-width:1.0;" x1="300" x2="456.4375" y1="319.5938" y2="319.5938"/><text fill="#000000" font-family="sans-serif" font-size="13" lengthAdjust="spacing" textLength="78" x="307" y="299.395">&#35835;&#21462;&#25152;&#26377;&#31526;&#21512;</text><text fill="#000000" font-family="sans-serif" font-size="13" lengthAdjust="spacing" textLength="132" x="307" y="314.5278">zipcode='95054'&#30340;&#34892;</text><line style="stroke:#FF0000;stroke-width:1.0;" x1="300" x2="342" y1="348.7266" y2="348.7266"/><line style="stroke:#FF0000;stroke-width:1.0;" x1="342" x2="342" y1="348.7266" y2="361.7266"/><line style="stroke:#FF0000;stroke-width:1.0;" x1="301" x2="342" y1="361.7266" y2="361.7266"/><polygon fill="#FF0000" points="311,357.7266,301,361.7266,311,365.7266,307,361.7266" style="stroke:#FF0000;stroke-width:1.0;"/><text fill="#FF0000" font-family="sans-serif" font-size="13" font-weight="bold" lengthAdjust="spacing" textLength="148.4375" x="307" y="343.6606">&#36890;&#36807;lastname&#36827;&#34892;&#31579;&#36873;</text><polygon fill="#181818" points="85,401.9922,75,405.9922,85,409.9922,81,405.9922" style="stroke:#181818;stroke-width:1.0;"/><line style="stroke:#181818;stroke-width:1.0;" x1="79" x2="299" y1="405.9922" y2="405.9922"/><text fill="#000000" font-family="sans-serif" font-size="13" lengthAdjust="spacing" textLength="130" x="91" y="385.7935">&#36820;&#22238;&#25152;&#26377;&#31526;&#21512;&#26465;&#20214;&#30340;&#34892;</text><text fill="#000000" font-family="sans-serif" font-size="13" lengthAdjust="spacing" textLength="151" x="91" y="400.9263">&#19981;&#21547;lastname&#19981;&#31526;&#21512;&#30340;&#34892;</text><polygon fill="#181818" points="511.9375,438.125,521.9375,442.125,511.9375,446.125,515.9375,442.125" style="stroke:#181818;stroke-width:1.0;"/><line style="stroke:#181818;stroke-width:1.0;" x1="74" x2="517.9375" y1="442.125" y2="442.125"/><text fill="#000000" font-family="sans-serif" font-size="13" lengthAdjust="spacing" textLength="78" x="81" y="437.0591">&#35835;&#21462;&#23436;&#25972;&#30340;&#34892;</text><polygon fill="#181818" points="85,452.125,75,456.125,85,460.125,81,456.125" style="stroke:#181818;stroke-width:1.0;"/><line style="stroke:#181818;stroke-width:1.0;" x1="79" x2="522.9375" y1="456.125" y2="456.125"/><line style="stroke:#181818;stroke-width:1.0;" x1="74" x2="116" y1="485.2578" y2="485.2578"/><line style="stroke:#181818;stroke-width:1.0;" x1="116" x2="116" y1="485.2578" y2="498.2578"/><line style="stroke:#181818;stroke-width:1.0;" x1="75" x2="116" y1="498.2578" y2="498.2578"/><polygon fill="#181818" points="85,494.2578,75,498.2578,85,502.2578,81,498.2578" style="stroke:#181818;stroke-width:1.0;"/><text fill="#000000" font-family="sans-serif" font-size="13" lengthAdjust="spacing" textLength="117" x="81" y="480.1919">&#36890;&#36807;&#21097;&#19979;&#30340;&#26465;&#20214;&#36807;&#28388;</text><!--SRC=[AyaioKbLUBvbqTCzKv_iw7xMjuABgo2ng2GpERCWCQz4GSctCZZGHo4ujQWijKX98R5OeHZCH5KKN99Vb9YUgk2QbvwPbmfMbWfcSd4bvfGeF9k-06esHBE2hXrKNi5AeIgp83a_9TLMtTBKmDH4dGig0LJYcPUIMW5KyMBzxgVzqvvrDZoRq_bypRAd4pfYyj1qFP_Lyc9X3qolZIv4Bymw81zktOlzKvxEdeTisBEv2v_itWOp8QSuLG4eHRHx5MBo7FrS578IYqlo4dDJ5NmylLqLr5LJIufAyp8JLQdY7zrevQBKb5WaHzWav-Va5oa0HUsqj5usp7gnlntcWXVxPmErFbyx-sL3fvQMZJvOfHtfGH6JzsH7xzC9gs7c0daGHN2tfI05JqXYKaugt6zFr_Kycxe5gX1XCrWHaYOeoqe1ueEddIk1mGxK1N46KEJPxYK0]--></g></svg>